<?xml version="1.0" encoding="utf-8"?>
<!-- Publii - Open-Source CMS for Static Website https://getpublii.com -->
<svg version="1.1" xmlns="http://www.w3.org/2000/svg" xmlns:xlink="http://www.w3.org/1999/xlink" x="0px" y="0px"
	 viewBox="0 0 1398 807" style="enable-background:new 0 0 1398 807;" xml:space="preserve">
    <title>GetPublii.com</title>
    <style type="text/css">
	.st0{fill:#FFFFFF;}
	.st1{fill:#EEEFF2;}
	.st2{fill:#616367;stroke:#616367;stroke-width:0.5;stroke-miterlimit:10;}
	.st3{fill:#40b771;}
	.st4{font-family:-apple-system,BlinkMacSystemFont,&apos;Segoe UI&apos;,Roboto,Oxygen-Sans,Ubuntu,Cantarell,&apos;Helvetica Neue&apos;,sans-serif; letter-spacing: -0.03em; }  

	.st5{font-size:13px;}
	.st6{fill:#8E929D;}
	.st7{fill:#FFC400;}
	.st8{fill:#4E5360;}
	.st9{font-size:14px;}
	.st10{display:none;}
	.st11{display:inline;}
	.st12{fill:#EE6A5E;}
	.st13{fill:#F6C050;}
	.st14{fill:#61C957;}
	.st15{fill:none;stroke:#DBDBDB;stroke-width:1;stroke-miterlimit:10;}
	.st16{fill:none;stroke:#DBDBDB;stroke-miterlimit:10;}
	.st17{fill:none;stroke:#A3A3A3;stroke-miterlimit:10;}
	.st18{fill:#328ed8;}
	.st19{font-size:12px;}
	.st20{fill:#333;}
	.st21{font-size:18px;}
	.st22{fill:#42a5f5;}
	.st23{fill:#62B9FF;}
	.st24{opacity:0.38;fill:none;stroke:#FFFFFF;stroke-miterlimit:10;}
	.st25{opacity:0.64;enable-background:new    ;}
	.st26{fill:none;stroke:#CB2429;stroke-width:0.657;stroke-miterlimit:10;}
	.st27{fill:#FFC439;}
	.st28{opacity:0.7;}
	.st29{opacity:0.7;fill:#FFFFFF;}
	.st30{opacity:0.37;fill:#050505;}
</style>
<g id="others">
	<rect y="1" class="st0" width="1398" height="806"/>
	<rect class="st1" width="1398" height="25"/>
	<g>
		<g>
			<path class="st2" d="M22.6,46.83c-0.4,0.29-0.6-0.76-0.6-1.05c0-0.86,0.9-1.34,1.8-1.81c2.2-1.24,3.6-1.81,5.5-2.39
				c0.1-0.38,0.1-0.67,0.1-0.76c0.1-1.05,0.5-0.86,1-0.67c0.3,0.1,0.6,0,0.3,1.05c2.8-0.76,4.1-1.05,7.1-0.95
				c3.3,0.1,7.2,2.29,6.6,4.87c-1.6,6.97-12.4,8.49-15.3,8.3c0,2.29,0.2,5.15,0.2,5.44c0,0.38,0.3,0.86-0.7,0.57
				c-1.1-0.29-0.8-1.81-0.8-1.91c0-0.19,0.1-2.39,0.2-4.39c-1-0.48-0.9-0.95-0.9-0.95c0-0.19,0.1-0.38,0.3-0.29
				c0.1,0.1,0.3,0.29,0.7,0.29c0.1-0.95,0.1-1.91,0.1-2.67c0-1.72,0.5-4.68,0.9-6.68c-2.8,0.86-5.6,2.39-6.4,3.34
				C22.5,46.45,22.9,46.64,22.6,46.83z M43.2,44.83c0.6-3.05-3.6-3.53-5.3-3.53c-3-0.1-5,0.29-7.5,1.15c-0.4,1.62-0.6,4.68-1,7.35
				c-0.1,0.76-0.2,1.72-0.2,2.67C32.5,52.75,41.9,51.41,43.2,44.83z"/>
		</g>
		<g>
			<path class="st2" d="M43.8,59.14c-2.1,0-2.4-2.29-2.4-2.29s-0.8,2.39-2.4,2.29c-1.3-0.1-1.8-1.81-1.6-3.05s0.6-2.39,0.7-2.67
				c0-0.19,0.2-0.67,0.8-0.48s0.3,0.67,0.1,1.24c-0.3,1.05-0.9,3.82,0.3,3.91c0.8,0.1,1.7-2,1.9-2.67c0.1-0.48,0.2-0.95,0.3-1.43
				c0.1-0.48,0.4-0.67,0.8-0.57c0.7,0.19,0.4,0.48,0.3,0.95c-0.1,0.29-0.1,1.05-0.1,2.1c0,0.86,0.3,1.81,1.1,1.81
				c2.1,0.19,3.2-2.29,3.9-3.53c0.3-0.48,0.8,0.19,0.1,1.34C46.89,57.14,45.4,59.14,43.8,59.14z"/>
		</g>
		<g>
			<path class="st2" d="M48.09,59.43c0,0-0.7,0.76-1.2-0.29c-0.5-1.15,0-3.72,0-3.72s0.7-4.01,1.4-11.36c0.5-1.05,1.7,0,1.5,0.67
				c0,0-1.6,5.54-1.8,11.74c0,0,1.1-4.39,3.6-4.1c1.9,0.29,1.4,3.34,1.3,3.91c-0.4,2.77-2.5,3.72-3.3,3.72
				C48.79,59.9,48.09,59.43,48.09,59.43z M48.29,58.19c0,0,0.2,0.86,1.1,0.86c2.3-0.1,3.7-5.73,1.7-5.63
				C49.29,53.51,48.29,58.19,48.29,58.19z"/>
		</g>
		<g>
			<path class="st2" d="M62.49,54.75c0.3-0.48,0.7,0.19,0.1,1.34c-0.2,0.38-1.9,3.72-4.9,3.53c-3.7-0.19-3.8-4.1-3.8-7.35
				c0-2.86,1.8-8.88,4.3-8.68c1.5,0.1,2.1,1.91,1.6,4.87c-0.6,4.01-3,7.92-4,8.97c0.6,0.86,1.3,1.34,2.3,1.34
				C60.29,58.76,61.79,55.99,62.49,54.75z M58.19,44.73c-1.2-0.1-2.9,3.63-3.3,7.63c-0.1,1.24,0.1,3.34,0.5,4.39
				c1.6-2.29,2.1-3.44,3.3-7.63C58.89,48.26,59.39,44.73,58.19,44.73z"/>
		</g>
		<g>
			<path class="st2" d="M64.49,59.71c-2.4,0-2.7-2.77-2.6-3.34c0.1-0.67,0.3-2,0.3-2c0.2-0.57,1.2-0.48,1.2,0.1
				c0,0.19-1.2,4.39,1.3,4.29c1.7-0.1,3.2-2.77,3.9-4.01c0.3-0.48,0.7,0.19,0.1,1.34C68.39,56.47,66.69,59.71,64.49,59.71z
				 M63.49,52.17c-0.1,0.38-0.5,0.76-0.9,0.67c-0.6-0.1-0.7-0.57-0.7-0.86c0-0.29,0.3-1.05,1-0.95
				C63.59,51.12,63.59,51.7,63.49,52.17z"/>
		</g>
		<g>
			<path class="st2" d="M70.49,59.71c-2.4,0-2.7-2.77-2.6-3.34c0.1-0.67,0.3-2,0.3-2c0.2-0.57,1.2-0.48,1.2,0.1
				c0,0.19-1.2,4.39,1.3,4.29c1.7-0.1,3.2-2.77,3.9-4.01c0.3-0.48,0.7,0.19,0.1,1.34C74.49,56.47,72.69,59.71,70.49,59.71z
				 M69.59,52.17c-0.1,0.38-0.5,0.76-0.9,0.67c-0.6-0.1-0.7-0.57-0.7-0.86c0-0.29,0.3-1.05,1-0.95
				C69.59,51.12,69.59,51.7,69.59,52.17z"/>
		</g>
	</g>
	<path class="st3" d="M1361,142.03h-116c-1.1,0-2-0.9-2-2.01v-28.99c0-1.71,1.4-3.01,3-3.01h115c1.1,0,2,0.9,2,2.01v29.99
		C1363,141.13,1362.1,142.03,1361,142.03z"/>
	<g>
		<polygon class="st0" points="1259.2,121.9 1257.8,121.9 1257.8,123.8 1255.9,123.8 1255.9,125.1 1257.8,125.1 1257.8,127.1 
			1259.2,127.1 1259.2,125.1 1261.1,125.1 1261.1,123.8 1259.2,123.8 		"/>
		<path class="st0" d="M1258.5,118c-3.6,0-6.5,2.9-6.5,6.5c0,3.6,2.9,6.5,6.5,6.5s6.5-2.9,6.5-6.5C1265,120.9,1262.1,118,1258.5,118
			z M1258.5,129.7c-2.9,0-5.2-2.3-5.2-5.2c0-2.9,2.3-5.2,5.2-5.2s5.2,2.3,5.2,5.2C1263.7,127.3,1261.4,129.7,1258.5,129.7z"/>
	</g>
	<text transform="matrix(1 0 0 1 1272.9998 128.8481)" class="st0 st4 st5">Add new post</text>
	<path class="st6" d="M659.67,314.98l0.33-0.48l-0.33-0.48c-2.43-3.53-5.68-5.47-9.17-5.47c-1.48,0-2.91,0.37-4.26,1.04l-3.45-3.46
		c-0.17-0.17-0.46-0.17-0.63,0s-0.17,0.46,0,0.63l3.26,3.27c-1.51,0.92-2.9,2.26-4.08,3.99L641,314.5l0.33,0.48
		c2.43,3.53,5.68,5.47,9.17,5.47c1.48,0,2.91-0.37,4.26-1.04l3.45,3.46c0.09,0.09,0.2,0.13,0.32,0.13s0.23-0.04,0.32-0.13
		c0.17-0.17,0.17-0.46,0-0.63l-3.26-3.27C657.09,318.04,658.48,316.71,659.67,314.98z M650.5,318.32c-2.1,0-3.8-1.71-3.8-3.82
		c0-0.89,0.32-1.7,0.83-2.35l0.97,0.97c-0.27,0.39-0.43,0.87-0.43,1.38c0,1.35,1.09,2.44,2.44,2.44c0.51,0,0.98-0.16,1.38-0.43
		l0.97,0.97C652.2,318,651.39,318.32,650.5,318.32z M652.51,315.88c0.27-0.39,0.43-0.87,0.43-1.38c0-0.28-0.06-0.55-0.15-0.8
		c-0.12,0.35-0.44,0.61-0.83,0.61c-0.49,0-0.89-0.4-0.89-0.89c0-0.48,0.38-0.87,0.86-0.89c-0.4-0.29-0.89-0.47-1.42-0.47
		c-0.51,0-0.98,0.16-1.38,0.43l-0.97-0.97c0.65-0.51,1.45-0.83,2.34-0.83c2.1,0,3.8,1.71,3.8,3.82c0,0.89-0.32,1.7-0.83,2.35
		L652.51,315.88z"/>
	<path class="st7" d="M797.85,691.19c0.29-0.3,0.12-0.81-0.29-0.87l-4.3-0.66c-0.17-0.03-0.32-0.14-0.39-0.29l-1.91-4.07
		c-0.09-0.2-0.28-0.3-0.47-0.3s-0.37,0.1-0.47,0.3l-1.91,4.07c-0.07,0.16-0.22,0.27-0.39,0.29l-4.3,0.66
		c-0.41,0.06-0.58,0.57-0.29,0.87l3.14,3.23c0.11,0.12,0.17,0.28,0.14,0.44l-0.74,4.54c-0.05,0.33,0.21,0.6,0.51,0.6
		c0.08,0,0.17-0.02,0.25-0.07l3.8-2.11c0.08-0.04,0.16-0.06,0.25-0.06s0.17,0.02,0.25,0.06l3.8,2.11c0.08,0.05,0.17,0.07,0.25,0.07
		c0.3,0,0.56-0.27,0.51-0.6l-0.74-4.54c-0.03-0.16,0.03-0.33,0.14-0.44L797.85,691.19z M793.28,693.02
		c-0.55,0.57-0.81,1.38-0.68,2.16l0.25,1.52l-1.12-0.62c-0.37-0.21-0.79-0.32-1.22-0.32s-0.85,0.11-1.22,0.32l-1.12,0.62l0.25-1.52
		c0.13-0.78-0.13-1.59-0.68-2.16l-1.14-1.17l1.45-0.22c0.83-0.13,1.54-0.66,1.9-1.42l0.56-1.2l0.56,1.2
		c0.36,0.76,1.07,1.29,1.9,1.42l1.45,0.22L793.28,693.02z"/>
	<text transform="matrix(1 0 0 1 1142.0002 56.718)" class="st8 st4 st9">Your website name</text>
	<circle class="st8" cx="1361.5" cy="45.5" r="1.5"/>
	<circle class="st8" cx="1361.5" cy="51.5" r="1.5"/>
	<circle class="st8" cx="1361.5" cy="57.5" r="1.5"/>
	<g class="st10">
		<rect x="1318" y="17" class="st11" width="10" height="1"/>
	</g>
	<path class="st10" d="M1346,8v10h10V8H1346z M1355,17h-8V9h8V17z"/>
	<polygon class="st10" points="1384,8.7 1383.3,8 1379.5,11.8 1375.7,8 1375,8.7 1378.8,12.5 1375,16.3 1375.7,17 1379.5,13.2 
		1383.3,17 1384,16.3 1380.2,12.5 	"/>
	<path class="st3" d="M1327,51l-0.3,0.5c-1.1,1.6-2.4,2.9-3.7,3.8l-2.3-2.3c0.3-0.6,0.5-1.3,0.5-2c0-2.1-1.7-3.9-3.8-3.9
		s-3.8,1.7-3.8,3.9s1.7,3.9,3.8,3.9c0.9,0,1.8-0.3,2.4-0.9l1.9,1.9c-1.3,0.7-2.7,1.1-4.2,1.1c-3.5,0-6.7-2-9.2-5.5L1308,51l0.3-0.5
		c2.5-3.5,5.7-5.5,9.2-5.5s6.7,2,9.2,5.5L1327,51z M1315,51.1c0,1.4,1.1,2.5,2.4,2.5c1.3,0,2.4-1.1,2.4-2.5c0-1.4-1.1-2.5-2.4-2.5
		C1316.1,48.6,1315,49.7,1315,51.1z"/>
	<path class="st8" d="M344.85,117.51l-2.36-2.36c0,0,0,0-0.01,0c0.58-0.84,0.92-1.85,0.92-2.95c0-2.87-2.33-5.2-5.2-5.2
		s-5.2,2.33-5.2,5.2s2.33,5.2,5.2,5.2c1.09,0,2.11-0.34,2.95-0.92c0,0,0,0,0,0.01l2.36,2.36c0.26,0.26,0.77,0.17,1.14-0.19
		C345.02,118.29,345.11,117.77,344.85,117.51z M338.2,115.8c-1.99,0-3.6-1.61-3.6-3.6c0-1.99,1.61-3.6,3.6-3.6
		c1.99,0,3.6,1.61,3.6,3.6C341.8,114.19,340.19,115.8,338.2,115.8z"/>
	<circle class="st12" cx="15" cy="12.33" r="5"/>
	<circle class="st13" cx="32" cy="12.33" r="5"/>
	<circle class="st14" cx="48.72" cy="12.33" r="5"/>
</g>
<g id="borders">
	<line class="st15" x1="1398" y1="75.5" x2="0" y2="76.5"/>
	<line class="st16" x1="271.5" y1="221.32" x2="1362.5" y2="220.32"/>
	<line class="st15" x1="271.5" y1="285.32" x2="1362.5" y2="284.32"/>
	<line class="st15" x1="271.5" y1="347.32" x2="1362.5" y2="346.32"/>
	<line class="st15" x1="271.5" y1="411.32" x2="1362.5" y2="410.32"/>
	<line class="st15" x1="271.5" y1="473.32" x2="1362.5" y2="472.32"/>
	<line class="st15" x1="271.5" y1="537.32" x2="1362.5" y2="536.32"/>
	<line class="st15" x1="271.5" y1="599.32" x2="1362.5" y2="598.32"/>
	<line class="st15" x1="271.5" y1="729.32" x2="1362.5" y2="728.32"/>
	<line class="st15" x1="271.5" y1="663.32" x2="1362.5" y2="662.32"/>
</g>
<g id="checbox">
	<path class="st17" d="M281,202h-8c-1.1,0-2-0.9-2-2v-8c0-1.1,0.9-2,2-2h8c1.1,0,2,0.9,2,2v8C283,201.1,282.1,202,281,202z"/>
	<path class="st17" d="M281,261h-8c-1.1,0-2-0.9-2-2v-8c0-1.1,0.9-2,2-2h8c1.1,0,2,0.9,2,2v8C283,260.1,282.1,261,281,261z"/>
	<path class="st17" d="M281,324h-8c-1.1,0-2-0.9-2-2v-8c0-1.1,0.9-2,2-2h8c1.1,0,2,0.9,2,2v8C283,323.1,282.1,324,281,324z"/>
	<path class="st17" d="M281,387h-8c-1.1,0-2-0.9-2-2v-8c0-1.1,0.9-2,2-2h8c1.1,0,2,0.9,2,2v8C283,386.1,282.1,387,281,387z"/>
	<path class="st17" d="M281,450h-8c-1.1,0-2-0.9-2-2v-8c0-1.1,0.9-2,2-2h8c1.1,0,2,0.9,2,2v8C283,449.1,282.1,450,281,450z"/>
	<path class="st17" d="M281,513h-8c-1.1,0-2-0.9-2-2v-8c0-1.1,0.9-2,2-2h8c1.1,0,2,0.9,2,2v8C283,512.1,282.1,513,281,513z"/>
	<path class="st17" d="M281,576h-8c-1.1,0-2-0.9-2-2v-8c0-1.1,0.9-2,2-2h8c1.1,0,2,0.9,2,2v8C283,575.1,282.1,576,281,576z"/>
	<path class="st17" d="M281,639h-8c-1.1,0-2-0.9-2-2v-8c0-1.1,0.9-2,2-2h8c1.1,0,2,0.9,2,2v8C283,638.1,282.1,639,281,639z"/>
	<path class="st17" d="M281,769h-8c-1.1,0-2-0.9-2-2v-8c0-1.1,0.9-2,2-2h8c1.1,0,2,0.9,2,2v8C283,768.1,282.1,769,281,769z"/>
	<path class="st17" d="M281,702h-8c-1.1,0-2-0.9-2-2v-8c0-1.1,0.9-2,2-2h8c1.1,0,2,0.9,2,2v8C283,701.1,282.1,702,281,702z"/>
</g>
<g id="text">
	<text transform="matrix(1 0 0 1 310.0001 259.7178)" class="st18 st4 st9">Max our your website performance</text>
	<text transform="matrix(1 0 0 1 1275.9996 258.7178)" class="st18 st4 st9">Jonah Joel</text>
	<text transform="matrix(1 0 0 1 1120.0005 259.0439)" class="st8 st4 st19">April 24, 2018 11:15 pm</text>
	<text transform="matrix(1 0 0 1 1275.9996 320.7176)" class="st18 st4 st9">Codie Jem</text>
	<text transform="matrix(1 0 0 1 1120.0005 321.0438)" class="st8 st4 st19">April 11, 2018 04:07 am</text>
	<text transform="matrix(1 0 0 1 310.0001 321.7176)" class="st18 st4 st9">Make and manage as many websites as you want</text>
	<text transform="matrix(1 0 0 1 310.0001 385.7178)" class="st18 st4 st9">We want everybody to make ultra-fast, secure, exciting websites</text>
	<text transform="matrix(1 0 0 1 1275.9996 384.7178)" class="st18 st4 st9">Lamont Pace</text>
	<text transform="matrix(1 0 0 1 1120.0005 385.0439)" class="st8 st4 st19">Mar 18, 2018 06:22 pm</text>
	<text transform="matrix(1 0 0 1 1275.9996 446.7176)" class="st18 st4 st9">Jonah Joel</text>
	<text transform="matrix(1 0 0 1 1120.0005 447.0438)" class="st8 st4 st19">Mar 05, 2018 01:56 am</text>
	<text transform="matrix(1 0 0 1 310.0001 447.7176)" class="st8 st4 st9">Web Accessibility – how easily can you test your website?</text>
	<text transform="matrix(1 0 0 1 310.0001 511.7178)" class="st6 st4 st9">One-Click Synchronization gets your website changes sorted in moments</text>
	<text transform="matrix(1 0 0 1 1275.9996 510.7178)" class="st18 st4 st9">Jonah Joel</text>
	<text transform="matrix(1 0 0 1 1120.0005 511.0439)" class="st8 st4 st19">Feb 27, 2018 11:37 am</text>
	<text transform="matrix(1 0 0 1 1275.9996 572.7176)" class="st18 st4 st9">Lamont Pace</text>
	<text transform="matrix(1 0 0 1 1120.0005 573.0438)" class="st8 st4 st19">Feb 18, 2018 05:15 pm</text>
	<text transform="matrix(1 0 0 1 310.0001 573.7176)" class="st18 st4 st9">Intuitive post editor takes the frustration out of the blog writing experience</text>
	<text transform="matrix(1 0 0 1 310.0001 636.7178)" class="st18 st4 st9">Websites created with Publii are based on static HTML files</text>
	<text transform="matrix(1 0 0 1 1275.9996 636.7178)" class="st18 st4 st9">Codie Jem</text>
	<text transform="matrix(1 0 0 1 1120.0005 637.0439)" class="st8 st4 st19">Jan 24, 2018 12:12 pm</text>
	<text transform="matrix(1 0 0 1 310.0001 767.7178)" class="st18 st4 st9">Publii is a new kind of blogging experience; an app for building static websites directly on your desktop</text>
	<text transform="matrix(1 0 0 1 1275.9996 767.7178)" class="st18 st4 st9">Codie Jem</text>
	<text transform="matrix(1 0 0 1 1120.0005 767.7178)" class="st8 st4 st19">Jan 12, 2018 06:24 pm</text>
	<text transform="matrix(1 0 0 1 1275.9996 698.7176)" class="st18 st4 st9">Lamont Pace</text>
	<text transform="matrix(1 0 0 1 1120.0005 699.0438)" class="st8 st4 st19">Jan 14, 2018 02:22 am</text>
	<text transform="matrix(1 0 0 1 310.0001 699.7176)" class="st18 st4 st9">Option-packed themes let you add your personal touch to your website</text>
	<text transform="matrix(1 0 0 1 271.0001 150.0439)" class="st18 st4 st19">All (9)   </text>
	<text transform="matrix(1 0 0 1 310.0136 199.7178)" class="st20 st4 st9">Title</text>
	<text transform="matrix(1 0 0 1 269.9999 120.0659)" class="st20 st4 st21">Posts</text>
	<text transform="matrix(1 0 0 1 1120.0004 199.7178)" class="st20 st4 st9">Publication date</text>
	<text transform="matrix(1 0 0 1 1276.0004 199.7178)" class="st20 st4 st9">Author</text>
	<path class="st6" d="M803.61,507.94L799,509l1.06-4.61l6.38-6.38l0.71,0.71l-6.38,6.38l1.42,1.42l6.38-6.38l1.42,1.42
		L803.61,507.94z M809.28,499.42l1.42,1.42l0.71-0.71c0.78-0.78,0.78-2.05,0-2.84l-0.71-0.71c-0.78-0.78-2.05-0.78-2.84,0
		l-0.71,0.71l0.71,0.71L809.28,499.42z M812.53,511h-16.06c-0.26,0-0.47,0.22-0.47,0.5s0.21,0.5,0.47,0.5h16.06
		c0.26,0,0.47-0.22,0.47-0.5S812.79,511,812.53,511z"/>
	<text transform="matrix(1 0 0 1 459 150.0439)" class="st6 st4 st19">Hidden (2)</text>
	<text transform="matrix(1 0 0 1 388 150.0442)" class="st6 st4 st19">Featured (1)</text>
	<text transform="matrix(1 0 0 1 523 150.0439)" class="st6 st4 st19">Drafts (3)</text>
	<text transform="matrix(1 0 0 1 580.0117 150.0439)" class="st6 st4 st19">Trashed (3)</text>
	<text transform="matrix(1 0 0 1 311 150.0442)" class="st6 st4 st19">Published (6)</text>
</g>
<g id="sidebar">
	<rect y="76" class="st22" width="226" height="731"/>
	<path class="st23" d="M206,776H23c-1.1,0-2-0.9-2-2v-38c0-1.1,0.9-2,2-2h183c1.1,0,2,0.9,2,2v38C208,775.1,207.1,776,206,776z"/>
	<path class="st23" d="M206.43,143H24.57c-0.86,0-1.57-0.71-1.57-1.57v-31.86c0-0.86,0.71-1.57,1.57-1.57h181.86
		c0.86,0,1.57,0.71,1.57,1.57v31.86C208,142.29,207.29,143,206.43,143z"/>
	<path class="st24" d="M205,727H24c-1.1,0-2-0.9-2-2v-38c0-1.1,0.9-2,2-2h181c1.1,0,2,0.9,2,2v38C207,726.1,206.1,727,205,727z"/>
	<text transform="matrix(1 0 0 1 81.9998 760.7179)" class="st0 st4 st9">Sync website</text>
	<text transform="matrix(1 0 0 1 68.0001 711.718)" class="st0 st4 st9">Preview website</text>
	<path class="st0" d="M56.67,752.78c0-0.06,0.01-0.11,0.01-0.17c0-3.65-2.96-6.61-6.62-6.61c-2.67,0-4.97,1.59-6.01,3.86
		c-0.53-0.35-1.16-0.56-1.84-0.56c-1.81,0-3.7,1.5-3.72,3.3c-1.7,0.72-2.48,2.37-2.48,4.34c0,2.55,2.02,4.63,4.55,4.74v0.01h7.03
		v3.3h1.65v-3.3h6.05c2.21,0,4.23-1.51,4.63-3.69C60.35,755.56,59.16,753.43,56.67,752.78z M49.23,757.11v3.75h-1.65v-3.75H45.1
		l3.31-4.51l3.31,4.51H49.23z"/>
	<text transform="matrix(1 0 0 1 71.0134 172.7176)" class="st25"><tspan x="0" y="0" class="st0 st4 st9">Tags</tspan><tspan x="0" y="41" class="st0 st4 st9">Menus</tspan><tspan x="0" y="82" class="st0 st4 st9">Authors</tspan><tspan x="0" y="123" class="st0 st4 st9">Server</tspan><tspan x="0" y="164" class="st0 st4 st9">Themes</tspan><tspan x="0" y="205" class="st0 st4 st9">Settings</tspan><tspan x="0" y="246" class="st0 st4 st9">Tools</tspan></text>
	<path class="st26" d="M149.72,600.67"/>
	<g>
		<path class="st26" d="M144.46,588.53"/>
	</g>
	<circle class="st27" cx="1116" cy="50" r="14"/>
	<path class="st0" d="M1116.66,55.3c0,0.01,0.01,0.02,0.01,0.04v1.33h2c0.37,0,0.67,0.3,0.67,0.67c0,0.37-0.3,0.67-0.67,0.67h-5.33
		c-0.37,0-0.67-0.3-0.67-0.67c0-0.37,0.3-0.67,0.67-0.67h2v-1.33c0-0.01,0.01-0.02,0.01-0.04c-3-0.33-5.34-2.87-5.34-5.96h1.33
		c0,2.57,2.09,4.67,4.67,4.67s4.67-2.09,4.67-4.67h1.33C1122,52.42,1119.66,54.97,1116.66,55.3z M1116,52.67
		c1.83,0,3.33-1.5,3.33-3.33h-2.67V48h2.67v-1.33h-2.67v-1.33h2.67c0-1.83-1.5-3.33-3.33-3.33s-3.33,1.5-3.33,3.33v4
		C1112.67,51.17,1114.17,52.67,1116,52.67z"/>
	<text transform="matrix(1 0 0 1 70.9998 131.7176)" class="st0 st4 st9">Posts</text>
	<path class="st0" d="M49.33,122.33v8.89c0,0.98-0.8,1.78-1.78,1.78h-9.78c-0.98,0-1.78-0.8-1.78-1.78v-9.78
		c0-0.98,0.8-1.78,1.78-1.78h8c-0.89,0-1.78,1.78-2.67,1.78h-5.33v9.78h9.78V125C47.56,123.22,49.33,124.11,49.33,122.33z
		 M42.5,124.43c-0.34,0.31-0.38,0.84-0.07,1.18c0.3,0.34,0.83,0.38,1.18,0.07l6.24-5.55c-0.55-0.63-0.55-0.63-1.11-1.25L42.5,124.43
		z M51.79,117.28c-0.3-0.34-0.83-0.38-1.18-0.07l-0.62,0.56c0.55,0.63,0.55,0.63,1.11,1.25l0.62-0.56
		C52.06,118.16,52.1,117.63,51.79,117.28z"/>
	<g class="st28">
		<path class="st0" d="M51.98,162.13c0-1.16-0.95-2.11-2.11-2.11L44.99,160c0,0,0,0-0.01,0c-0.55,0-1.09,0.22-1.48,0.61l-6.89,6.89
			c-0.82,0.82-0.82,2.16,0.01,2.98l4.9,4.9c0.41,0.41,0.96,0.62,1.5,0.62c0.54,0,1.07-0.2,1.48-0.61l6.89-6.89
			c0.39-0.39,0.62-0.94,0.61-1.49L51.98,162.13z M50.36,167.47l-6.89,6.89c-0.25,0.25-0.67,0.25-0.92-0.01l-4.9-4.9
			c-0.26-0.26-0.26-0.67-0.01-0.92l6.89-6.89c0.12-0.12,0.28-0.19,0.46-0.19c0,0,0,0,0,0l4.88,0.02c0.36,0,0.66,0.3,0.66,0.66
			l0.02,4.88C50.55,167.19,50.48,167.35,50.36,167.47z"/>
		<circle class="st0" cx="46.91" cy="165.09" r="1.45"/>
	</g>
	<path class="st29" d="M45.79,203.75h-8.92c-0.48,0-0.88-0.39-0.88-0.88l0,0c0-0.48,0.39-0.88,0.88-0.88h8.92
		c0.48,0,0.88,0.39,0.88,0.88l0,0C46.67,203.36,46.27,203.75,45.79,203.75z M42.24,209.88h-5.36c-0.48,0-0.88-0.39-0.88-0.88l0,0
		c0-0.48,0.39-0.88,0.88-0.88h5.36c0.48,0,0.88,0.39,0.88,0.88l0,0C43.11,209.48,42.72,209.88,42.24,209.88z M51.12,216H36.88
		c-0.48,0-0.88-0.39-0.88-0.88l0,0c0-0.48,0.39-0.88,0.88-0.88h14.25c0.48,0,0.88,0.39,0.88,0.88l0,0C52,215.61,51.61,216,51.12,216
		z"/>
	<path class="st29" d="M49.44,246.7c0.47-0.41,0.76-1.01,0.76-1.68c0-1.24-1.01-2.24-2.25-2.24s-2.25,1.01-2.25,2.24
		c0,0.61,0.25,1.16,0.64,1.56c-0.88,0.34-1.62,0.97-2.13,1.7c-0.22-0.14-0.45-0.27-0.68-0.39c0.78-0.73,1.27-1.75,1.27-2.9
		c0-2.21-1.81-4-4.05-4s-4.05,1.79-4.05,4c0,1.14,0.49,2.17,1.27,2.9c-2.34,1.15-3.97,3.57-3.97,5.55c0,2.7,3.02,3.56,6.75,3.56
		s6.75-0.86,6.75-3.56c0-0.29-0.04-0.6-0.11-0.9c0.12,0,0.23,0.02,0.36,0.02c2.35,0,4.25-0.55,4.25-2.28
		C52,248.99,50.94,247.43,49.44,246.7z M47.95,243.56c0.81,0,1.46,0.65,1.46,1.46s-0.66,1.46-1.46,1.46s-1.46-0.65-1.46-1.46
		S47.14,243.56,47.95,243.56z M38.5,245c0-1.23,1.01-2.22,2.25-2.22s2.25,1,2.25,2.22s-1.01,2.22-2.25,2.22S38.5,246.23,38.5,245z
		 M40.75,255.22c-1.85,0-4.95-0.23-4.95-1.78c0-1.76,2.22-4.44,4.95-4.44s4.95,2.69,4.95,4.44C45.7,254.99,42.6,255.22,40.75,255.22
		z M47.75,251.69c-0.21,0-0.43-0.02-0.64-0.03c-0.43-1.04-1.19-2.07-2.18-2.87c0.61-0.87,1.64-1.63,2.83-1.63
		c1.88,0,3.4,1.89,3.4,3.12C51.15,251.44,49.3,251.69,47.75,251.69z"/>
	<path class="st29" d="M38.6,332.16v-7.27c0-0.49-0.41-0.89-0.9-0.89c-0.49,0-0.9,0.4-0.9,0.89v7.27c-1.05,0.37-1.8,1.34-1.8,2.5
		s0.75,2.14,1.8,2.5v1.94c0,0.49,0.41,0.89,0.9,0.89c0.49,0,0.9-0.4,0.9-0.89v-1.94c1.05-0.37,1.8-1.34,1.8-2.5
		S39.65,332.53,38.6,332.16z M37.7,336.44c-0.99,0-1.8-0.8-1.8-1.78c0-0.98,0.81-1.78,1.8-1.78s1.8,0.8,1.8,1.78
		C39.5,335.65,38.69,336.44,37.7,336.44z M44.9,326.83v-1.94c0-0.49-0.41-0.89-0.9-0.89s-0.9,0.4-0.9,0.89v1.94
		c-1.05,0.37-1.8,1.34-1.8,2.5s0.75,2.14,1.8,2.5v7.27c0,0.49,0.41,0.89,0.9,0.89s0.9-0.4,0.9-0.89v-7.27
		c1.05-0.37,1.8-1.34,1.8-2.5S45.95,327.2,44.9,326.83z M44,331.11c-0.99,0-1.8-0.8-1.8-1.78c0-0.98,0.81-1.78,1.8-1.78
		s1.8,0.8,1.8,1.78C45.8,330.31,44.99,331.11,44,331.11z M53,332.89c0-1.16-0.75-2.14-1.8-2.5v-5.5c0-0.49-0.41-0.89-0.9-0.89
		c-0.49,0-0.9,0.4-0.9,0.89v5.5c-1.05,0.37-1.8,1.34-1.8,2.5s0.75,2.14,1.8,2.5v3.72c0,0.49,0.41,0.89,0.9,0.89
		c0.49,0,0.9-0.4,0.9-0.89v-3.72C52.25,335.02,53,334.05,53,332.89z M50.3,334.67c-0.31,0-0.59-0.08-0.84-0.22
		c-0.02-0.03-0.04-0.06-0.05-0.09c0,0,0-0.01-0.01-0.01v0.07c-0.54-0.31-0.9-0.88-0.9-1.53c0-0.98,0.81-1.78,1.8-1.78
		s1.8,0.8,1.8,1.78C52.1,333.87,51.29,334.67,50.3,334.67z"/>
	<path class="st29" d="M41.84,413.65c-1.47,1.11-3.6,0.94-4.8-0.46c-0.89-1.05-1.21-2.41-0.95-3.69c0.07-0.34,0.49-0.46,0.73-0.21
		l2.99,2.81c1.23,1.23,3.05-2.29,2.46-3.05l-2.99-2.23c-0.24-0.24-0.12-0.67,0.22-0.74c1.37-0.28,2.85,0.12,3.92,1.19
		C45.39,409.27,44.21,411.87,41.84,413.65z M52,420.46c0,0.4-0.15,0.79-0.45,1.09c-0.3,0.3-0.69,0.45-1.09,0.45
		c-0.39,0-0.79-0.15-1.09-0.45l-6.3-6.33c-0.49-0.49-1.04-0.61-1.74-0.61c1.41-0.71,2.56-1.86,3.26-3.28c0,0.7,0.16,1.21,0.65,1.7
		l6.3,6.33C51.85,419.66,52,420.06,52,420.46z M51.01,419.91c-0.3-0.3-0.79-0.3-1.09,0c-0.3,0.3-0.3,0.79,0,1.09
		c0.3,0.3,0.79,0.3,1.09,0C51.31,420.7,51.31,420.21,51.01,419.91z"/>
	<g class="st28">
		<path class="st0" d="M52,374.29v-2.59l-1.68-0.42c-0.15-0.54-0.36-1.05-0.63-1.53l0.89-1.49l-1.82-1.84l-1.5,0.89
			c-0.48-0.28-1-0.49-1.53-0.64L45.29,365h-2.59l-0.42,1.68c-0.54,0.15-1.05,0.36-1.53,0.64l-1.5-0.89l-1.82,1.84l0.89,1.49
			c-0.28,0.48-0.49,0.99-0.63,1.53L36,371.71v2.59l1.68,0.42c0.15,0.54,0.36,1.05,0.64,1.53l-0.89,1.5l1.84,1.82l1.49-0.89
			c0.48,0.28,1,0.49,1.53,0.63l0.42,1.68h2.59l0.42-1.68c0.54-0.15,1.05-0.36,1.53-0.63l1.49,0.89l1.84-1.82l-0.89-1.5
			c0.28-0.48,0.49-1,0.64-1.53L52,374.29z M49.08,373.53L49,373.98c-0.13,0.67-0.39,1.3-0.77,1.86l-0.26,0.38l0.77,1.3l-0.23,0.23
			l-1.29-0.77l-0.38,0.26c-0.56,0.38-1.19,0.64-1.86,0.77l-0.45,0.09l-0.37,1.46h-0.32l-0.37-1.46L43.02,378
			c-0.67-0.13-1.29-0.39-1.86-0.77l-0.38-0.26l-1.29,0.77l-0.23-0.23l0.77-1.3l-0.26-0.38c-0.38-0.56-0.64-1.19-0.77-1.86
			l-0.09-0.45l-1.46-0.37v-0.32l1.46-0.37l0.09-0.45c0.13-0.67,0.39-1.3,0.77-1.86l0.26-0.38l-0.78-1.29l0.23-0.23l1.3,0.77
			l0.38-0.26c0.56-0.38,1.19-0.64,1.86-0.77l0.45-0.09l0.37-1.46h0.32l0.37,1.46l0.45,0.09c0.67,0.13,1.3,0.39,1.86,0.77l0.38,0.26
			l1.3-0.77l0.23,0.23l-0.78,1.29l0.26,0.38c0.38,0.56,0.64,1.19,0.77,1.86l0.09,0.45l1.46,0.37v0.32L49.08,373.53z"/>
		<path class="st0" d="M44,370.09c-1.6,0-2.91,1.31-2.91,2.91s1.31,2.91,2.91,2.91s2.91-1.31,2.91-2.91S45.6,370.09,44,370.09z
			 M44,374.45c-0.8,0-1.45-0.65-1.45-1.45s0.65-1.45,1.45-1.45s1.45,0.65,1.45,1.45S44.8,374.45,44,374.45z"/>
	</g>
	<path class="st29" d="M50.22,283H37.78c-0.98,0-1.78,0.8-1.78,1.78v4.44c0,0.98,0.8,1.78,1.78,1.78h12.44
		c0.98,0,1.78-0.8,1.78-1.78v-4.44C52,283.8,51.2,283,50.22,283z M50.22,289.22H37.78v-4.44h12.44V289.22z M50.22,292.78
		c0.59,0,1.19,0,1.78,0v4.44c0,0.98-0.8,1.78-1.78,1.78H37.78c-0.98,0-1.78-0.8-1.78-1.78v-4.44c0.59,0,1.19,0,1.78,0v4.44h12.44
		V292.78z M41.78,295.44c-0.74,0-1.33-0.6-1.33-1.33s0.6-1.33,1.33-1.33s1.33,0.6,1.33,1.33S42.51,295.44,41.78,295.44z"/>
	<path class="st30" d="M1275.19,49.14l-3.69,3.71l-3.69-3.71c-0.19-0.19-0.49-0.19-0.67,0c-0.19,0.19-0.19,0.49,0,0.67l4.03,4.05
		c0.19,0.19,0.49,0.19,0.67,0l4.03-4.05c0.19-0.19,0.19-0.49,0-0.67C1275.68,48.95,1275.38,48.95,1275.19,49.14z"/>
</g>
</svg>
